# xmcd
#
# Track frame offsets:
#	150
#	22476
#	39778
#	54975
#	71138
#	83707
#	99174
#	114951
#	131300
#	146984
#	158380
#	172687
#	184612
#	200548
#	216016
#	234341
#	258704
#	276716
#	294772
#	306368
#
# Disc length: 4286
#
# Revision: 1
# Processed by: cddbd v1.5.1PL0 Copyright (c) Steve Scherf et al.
# Submitted via: ExactAudioCopy v0.95a4
# Normalized: r0:TDELIM( - )
#
DISCID=1610bc14
DTITLE=Various Artist - Nu Country Traxx
DYEAR=2004
DGENRE=Country
TTITLE0=Tim Mcgraw - Back When
TTITLE1=Big and Rich - Holy Water
TTITLE2=Alan Jackson - Monday Morning Church
TTITLE3=Miranda Lambert - Me And Charlie Talking
TTITLE4=Shelley Fairchild - You Don't Lie Here Anymore
TTITLE5=Chad Brock - That Changed Me
TTITLE6=Andy Griggs - If Heaven
TTITLE7=David Lee Murphy - Inspiration
TTITLE8=Jamie O'Neal - Trying To Find Atlantis
TTITLE9=Willie Nelson - Midnight Rider
TTITLE10=Jeff Bates - Long Slow Kisses
TTITLE11=Josh Gracin - Nothin To Lose
TTITLE12=Carolina Rain - If I Ain't Scared
TTITLE13=Phil Vassar - I'll Take That As A Yes
TTITLE14=Julie Roberts - The Chance
TTITLE15=Sara Evans - Tonight
TTITLE16=Jamie Warren - Where's The Love
TTITLE17=Lisa Hewitt - One Of These Goodbyes
TTITLE18=Tracy Lawrence - Sawdust On Her Halo
TTITLE19=Aaron Pritchett - John Roland Wood
EXTD=
EXTT0=
EXTT1=
EXTT2=
EXTT3=
EXTT4=
EXTT5=
EXTT6=
EXTT7=
EXTT8=
EXTT9=
EXTT10=
EXTT11=
EXTT12=
EXTT13=
EXTT14=
EXTT15=
EXTT16=
EXTT17=
EXTT18=
EXTT19=
PLAYORDER=
